<svg width="200" height="200" viewBox="0 0 200 200" fill="none" xmlns="http://www.w3.org/2000/svg">
<path d="M128 20C128 20 134.324 37.5 138 70C138 103 112 121 112 121C104 129 103 137.5 103 137.5V180C103 200 133 200 133 200H67C67 200 97 200 97 180V137.5C97 137.5 96 129 88 121C88 121 62 103 62 70C65.6763 37.5 72 20 72 20H75L74.1592 23.0332C74.0581 23.3547 73.9455 23.7138 73.8252 24.1113C73.1908 26.2074 72.3004 29.3558 71.2939 33.5176C69.2881 41.8121 66.8215 54.1318 65 70.168C65.0439 85.759 71.1878 97.8334 77.3945 106.069C80.5086 110.201 83.6227 113.344 85.9482 115.446C87.1097 116.496 88.0708 117.283 88.7314 117.8C89.0617 118.058 89.3166 118.25 89.4834 118.372C89.5486 118.42 89.6002 118.457 89.6377 118.484L89.665 118.501C89.6984 118.521 89.7404 118.546 89.79 118.574C89.9532 118.668 90.2015 118.807 90.5205 118.978C91.161 119.319 92.0769 119.778 93.1631 120.235C95.3964 121.176 98.0876 122 100.499 122C102.878 122 105.294 121.192 107.222 120.285C108.164 119.842 108.94 119.399 109.474 119.07C109.74 118.907 109.943 118.773 110.073 118.685C110.138 118.641 110.186 118.608 110.213 118.589C110.22 118.584 110.233 118.574 110.237 118.571L110.263 118.554L110.291 118.533C110.298 118.528 110.313 118.518 110.332 118.505C110.37 118.478 110.431 118.433 110.515 118.372C110.681 118.25 110.936 118.058 111.267 117.8C111.927 117.283 112.888 116.496 114.05 115.446C116.375 113.344 119.489 110.201 122.604 106.069C128.81 97.8334 134.953 85.7589 134.997 70.168C133.176 54.1319 130.71 41.8121 128.704 33.5176C127.698 29.3558 126.807 26.2074 126.173 24.1113C126.052 23.7136 125.94 23.3539 125.839 23.0322L125 20H128Z" fill="#333333"/>
</svg>
