<svg width="200" height="200" viewBox="0 0 200 200" fill="none" xmlns="http://www.w3.org/2000/svg">
<path d="M145.008 20C145.008 20.0086 145.552 48.2438 137.508 68C131.078 83.7925 119.008 87 114.008 92C109.633 96.375 105.008 104 105.008 108V167C105.008 192 137.008 200 137.008 200H63.0078C63.0711 199.984 95.0078 191.975 95.0078 167V108C95.0078 104 90.3828 96.375 86.0078 92C81.0078 87 68.9379 83.7925 62.5078 68C54.4627 48.2407 55.0078 20 55.0078 20H58.0176V23.043C58.0247 23.5262 58.0322 24.0622 58.0469 24.6455C58.1202 27.5506 58.301 31.6311 58.7285 36.3174C59.5887 45.747 61.4307 57.3998 65.2861 66.8691C68.2545 74.1595 72.4888 78.5068 76.6162 81.6641C78.4593 83.0738 80.2655 84.2359 82.0156 85.3623C82.0156 85.3623 90 92 100 92C108.75 92 115.962 86.9229 117.629 85.6533L117.992 85.3682C119.745 84.24 121.552 83.076 123.398 81.6641C127.526 78.5068 131.761 74.1599 134.73 66.8691C138.585 57.3998 140.427 45.747 141.287 36.3174C141.715 31.6311 141.894 27.5506 141.968 24.6455C141.983 24.0447 141.961 20.4945 141.968 20H145.008Z" fill="#333333"/>
</svg>
