<svg width="200" height="200" viewBox="0 0 200 200" fill="none" xmlns="http://www.w3.org/2000/svg">
<path d="M136 59C136 88.5 119 133 119 143V177C119 177.005 118.999 179.001 118 180C117 181 115 181 115 181V187H41V181C41 181 39 181 38 180C37.0011 179.001 37 177.005 37 177V143C37 133 20 88.5 20 59H23C23.5124 72.7951 27.4378 92.5686 31.4004 107.545C32.4585 111.544 33.5175 115.394 34.5137 119.009L34.6406 119.469C35.5876 122.904 36.4763 126.13 37.2441 129.039C38.0451 132.074 38.725 134.809 39.2061 137.118C39.6765 139.376 40 141.421 40 143V176.979C40.0015 177.017 40.0112 177.257 40.0674 177.538C40.0927 177.664 40.1234 177.768 40.1514 177.849C40.2175 177.872 40.318 177.905 40.4629 177.934C40.6298 177.967 40.7882 177.984 40.9023 177.993C40.9572 177.997 40.9967 177.999 41.0156 178H44V184H112V178H114.984C115.003 177.999 115.043 177.997 115.098 177.993C115.212 177.984 115.37 177.967 115.537 177.934C115.681 177.905 115.782 177.872 115.848 177.849C115.876 177.768 115.907 177.664 115.933 177.538C115.984 177.283 115.997 177.066 116 177V143C116 141.421 116.324 139.376 116.794 137.118C117.275 134.809 117.955 132.074 118.756 129.039C119.523 126.131 120.413 122.903 121.359 119.469L121.486 119.009C122.483 115.394 123.541 111.544 124.6 107.545C128.562 92.5686 132.488 72.7951 133 59H136Z" fill="#333333"/>
<path d="M123 198.999V188.94C123.825 183.158 126.184 177.689 129.866 173.201L175.036 118.138C177.352 115.314 178.932 111.882 179.616 108.223C180.593 102.997 179.689 97.5365 177.062 92.9769L176.859 92.6244C174.765 88.9893 171.63 86.1525 167.909 84.5248C163.259 82.4909 158.036 82.4916 153.387 84.5277L142.964 89.0922C141.517 89.726 140.831 91.4794 141.431 93.0082C142.03 94.537 143.69 95.263 145.137 94.6293L155.558 90.0638C158.817 88.6362 162.48 88.636 165.74 90.0619C168.349 91.2031 170.547 93.1912 172.016 95.7396L172.219 96.0922C174.103 99.362 174.756 103.297 174.052 107.063C173.558 109.705 172.416 112.182 170.751 114.212L125.581 169.275C121.413 174.356 118.666 180.491 117.557 186.999H117V198.999H123Z" fill="#333333"/>
<path d="M117 187H39V200H117V199V187Z" fill="#333333"/>
</svg>
