<svg width="200" height="200" viewBox="0 0 200 200" fill="none" xmlns="http://www.w3.org/2000/svg">
<path d="M40.011 36C39.8271 29.7057 42.011 20 42.011 20H158.011C158.011 20 160.195 29.7057 160.011 36C159.516 52.9345 154.581 64.8568 141.011 75C133.576 80.5576 125.011 84 119.011 93C113.011 102 106.011 113 106.011 140.5L106.011 183C106.011 193 141.011 200 141.011 200H59.011C59.011 200 94.011 193 94.011 183L94.011 140.5C94.011 113 87.011 102 81.011 93C75.011 84 66.4461 80.5576 59.011 75C45.4412 64.8568 40.5058 52.9345 40.011 36Z" fill="white"/>
</svg>
