<svg width="200" height="200" viewBox="0 0 200 200" fill="none" xmlns="http://www.w3.org/2000/svg">
<path d="M135 20C135 20 124 36 124 62C124 88 135 100.5 135 123C135 136.644 126.357 146.979 116.99 153H117C117 153 105.156 166.83 107.38 168.843C109.603 170.856 111 173.765 111 177C111 180.044 109.763 182.798 107.765 184.79C105.767 186.782 109.618 188.524 111.281 190.582C116.866 197.496 132 200 132 200H68C68 200 83.1318 197.496 88.7168 190.583C90.3801 188.524 94.2322 186.782 92.2344 184.79C90.2366 182.798 89 180.044 89 177C89 173.765 90.3961 170.856 92.6191 168.843C94.8422 166.83 83 153 83 153H83.0098C73.6425 146.979 65 136.644 65 123C65 100.5 76 88 76 62C76 36 65 20 65 20H135Z" fill="white"/>
</svg>
