<svg width="200" height="200" viewBox="0 0 200 200" fill="none" xmlns="http://www.w3.org/2000/svg">
<path d="M185 20L182.499 60.0371L182.495 60.0859L182.482 60.1328L182.481 60.1367C182.481 60.1396 182.479 60.1437 182.478 60.1494C182.474 60.1614 182.469 60.18 182.463 60.2041C182.45 60.2524 182.431 60.325 182.405 60.4209C182.354 60.6133 182.279 60.9006 182.184 61.2764C181.993 62.0279 181.721 63.1358 181.394 64.5576C180.739 67.4016 179.865 71.5023 178.992 76.5234C177.245 86.5675 175.5 100.287 175.5 115C175.5 129.755 175.25 143.51 175 153.575C174.875 158.608 174.75 162.719 174.656 165.571C174.609 166.998 174.57 168.11 174.543 168.865C174.529 169.243 174.518 169.531 174.511 169.726C174.507 169.823 174.505 169.896 174.503 169.945C174.502 169.97 174.5 169.989 174.5 170.001V170.02L174.499 170.033L172 200H28L25.501 170.033L25.5 170.02V170.001C25.4995 169.989 25.498 169.97 25.4971 169.945C25.4952 169.896 25.4929 169.823 25.4893 169.726C25.4819 169.531 25.4707 169.243 25.457 168.865C25.4297 168.11 25.3906 166.998 25.3438 165.571C25.25 162.719 25.125 158.608 25 153.575C24.7499 143.51 24.5 129.755 24.5 115C24.5 100.287 22.7546 86.5675 21.0078 76.5234C20.1346 71.5023 19.261 67.4016 18.6064 64.5576C18.2792 63.1358 18.007 62.0279 17.8164 61.2764C17.7211 60.9006 17.6456 60.6133 17.5947 60.4209C17.5694 60.325 17.5501 60.2524 17.5371 60.2041C17.5306 60.18 17.5257 60.1614 17.5225 60.1494C17.5209 60.1437 17.5193 60.1396 17.5186 60.1367V60.1328L17.5049 60.0859L17.501 60.0371L15 20H185Z" fill="white"/>
</svg>
