<svg width="200" height="200" viewBox="0 0 200 200" fill="none" xmlns="http://www.w3.org/2000/svg">
<path d="M123 198.999V188.94C123.825 183.158 126.184 177.689 129.866 173.201L175.036 118.138C177.352 115.314 178.932 111.882 179.616 108.223C180.593 102.997 179.689 97.5365 177.062 92.9769L176.859 92.6244C174.765 88.9893 171.63 86.1525 167.909 84.5248C163.259 82.4909 158.036 82.4916 153.387 84.5277L142.964 89.0922C141.517 89.726 140.831 91.4794 141.431 93.0082C142.03 94.537 143.69 95.263 145.137 94.6293L155.558 90.0638C158.817 88.6362 162.48 88.636 165.74 90.0619C168.349 91.2031 170.547 93.1912 172.016 95.7396L172.219 96.0922C174.103 99.362 174.756 103.297 174.052 107.063C173.558 109.705 172.416 112.182 170.751 114.212L125.581 169.275C121.413 174.356 118.666 180.491 117.557 186.999H117V198.999H123Z" fill="white"/>
<path d="M117 187H39V200H117V199V187Z" fill="white"/>
<path d="M136 59C136 88.5 119 133 119 143V177C119 177.005 118.999 179.001 118 180C117 181 115 181 115 181V187H41V181C41 181 39 181 38 180C37.0011 179.001 37 177.005 37 177V143C37 133 20 88.5 20 59H136Z" fill="white"/>
</svg>
