<svg width="20" height="20" viewBox="0 0 20 20" fill="none" xmlns="http://www.w3.org/2000/svg">
<path d="M8.33366 16.6667L7.29199 14.5833L5.00033 15M8.33366 3.33333L7.29199 5.41667L5.00033 5M11.667 16.6667L12.7087 14.5833L15.0003 15M11.667 3.33333L12.7087 5.41667L15.0003 5M14.167 17.5L11.667 12.5M11.667 12.5H8.33366M11.667 12.5L12.917 10M8.33366 12.5L5.83366 17.5M8.33366 12.5L7.08366 10M14.167 2.5L11.667 7.5M11.667 7.5L12.917 10M11.667 7.5H8.33366M12.917 10H18.3337M1.66699 10H7.08366M7.08366 10L8.33366 7.5M8.33366 7.5L5.83366 2.5M16.667 8.33333L15.417 10L16.667 11.6667M3.33366 8.33333L4.58366 10L3.33366 11.6667" stroke="#333333" stroke-width="3" stroke-linecap="round" stroke-linejoin="round"/>
</svg>
