<svg width="200" height="200" viewBox="0 0 200 200" fill="none" xmlns="http://www.w3.org/2000/svg">
<path d="M121 20C121.003 20.0358 127.035 86.7551 114.027 113.807C114.027 113.807 103 134 103 140.687C103 147.373 103 130.666 103 165.333C103 200 127 200 127 200H73C73 200 97 200 97 165.333V140.688C97 134 85.9717 113.807 85.9717 113.807C72.9644 86.7542 78.9971 20.0326 79 20H82C81.9619 20.5091 81.6879 24.0844 81.6436 24.7207C81.445 27.5687 81.1949 31.6423 80.9893 36.5322C80.5775 46.3218 80.3461 59.3424 81.0576 72.3359C81.7721 85.3837 83.428 98.1727 86.6875 107.614C90.0408 117.327 94.5085 122 100 122C105.491 122 109.959 117.327 113.312 107.614C116.572 98.1727 118.227 85.3837 118.941 72.3359C119.653 59.3424 119.422 46.3218 119.01 36.5322C118.804 31.6422 118.554 27.5687 118.355 24.7207C118.311 24.0844 118.038 20.5091 118 20H121Z" fill="#D9D9D9"/>
</svg>
