<svg width="200" height="200" viewBox="0 0 200 200" fill="none" xmlns="http://www.w3.org/2000/svg">
<path d="M166 20.4922V20.6846C165.999 20.8084 165.996 20.9902 165.99 21.2227C165.978 21.6876 165.95 22.358 165.89 23.1836C165.769 24.8339 165.516 27.1097 164.989 29.6123C163.941 34.5958 161.786 40.5792 157.318 44.251C155.373 45.8494 152.765 46.8542 149.999 47.5674C147.23 48.2813 144.246 48.7157 141.534 49.1396C138.799 49.5672 136.365 49.9815 134.615 50.6465C132.85 51.3172 132 52.1527 132 53.3145V53.3994C132 53.4577 132.001 53.5448 132.001 53.6582C132.002 53.8853 132.002 54.2206 132 54.6543C131.996 55.5226 131.985 56.7861 131.952 58.3672C131.887 61.5296 131.741 65.9658 131.414 71.0605C130.76 81.2425 129.372 80.4713 126.472 91.0459C125.698 93.8665 123.655 97.2821 121.841 99.957C120.928 101.302 120.063 102.475 119.427 103.312C119.108 103.73 118.846 104.066 118.664 104.296C118.573 104.411 118.502 104.5 118.453 104.561C118.429 104.591 118.409 104.614 118.396 104.63C118.391 104.637 118.386 104.644 118.383 104.647C118.381 104.649 118.379 104.652 118.379 104.652L118.377 104.654L118.368 104.664L118.367 104.666L118.365 104.669C118.363 104.671 118.36 104.674 118.356 104.678C118.35 104.686 118.339 104.696 118.327 104.71C118.302 104.738 118.266 104.78 118.218 104.831C118.122 104.933 117.981 105.078 117.8 105.255C117.436 105.608 116.905 106.089 116.229 106.601C114.938 107.579 111.406 108.685 109.489 109.231C107.398 117.158 107.496 144.574 107.125 156.507C106.938 162.528 106.906 168.055 106.922 172.075C106.93 174.085 106.949 175.719 106.967 176.85C106.976 177.415 106.983 177.854 106.989 178.152C106.99 178.213 106.992 178.268 106.993 178.316C107.097 178.373 107.228 178.445 107.377 178.531C107.763 178.755 108.28 179.076 108.8 179.464C109.317 179.85 109.854 180.313 110.266 180.825C110.672 181.33 111 181.936 111 182.597V187.569C111 187.735 111.071 187.95 111.279 188.221C111.488 188.492 111.81 188.789 112.253 189.106C113.138 189.741 114.428 190.404 116.009 191.074C119.166 192.413 123.391 193.743 127.635 194.922C131.875 196.1 136.117 197.123 139.3 197.853C140.891 198.217 142.217 198.508 143.145 198.708C143.608 198.808 143.973 198.884 144.221 198.937C144.344 198.962 144.44 198.983 144.504 198.996C144.535 199.003 144.56 199.007 144.576 199.011C144.584 199.012 144.591 199.014 144.595 199.015L144.6 199.016C144.599 199.02 144.591 199.061 144.5 199.503L144.601 199.017L144.5 200H56.5L56.3994 199.017L56.4004 199.016L56.4053 199.015C56.4093 199.014 56.4159 199.012 56.4238 199.011C56.44 199.007 56.4646 199.003 56.4961 198.996C56.56 198.983 56.6555 198.962 56.7793 198.937C57.0275 198.884 57.392 198.808 57.8555 198.708C58.7833 198.508 60.1092 198.217 61.7002 197.853C64.8833 197.123 69.1255 196.1 73.3652 194.922C77.6092 193.743 81.8344 192.413 84.9912 191.074C86.5724 190.404 87.8618 189.741 88.7471 189.106C89.1896 188.789 89.5123 188.492 89.7207 188.221C89.929 187.95 89.9999 187.735 90 187.569V182.597C90 181.936 90.3282 181.33 90.7344 180.825C91.1461 180.313 91.6832 179.85 92.2002 179.464C92.72 179.076 93.2374 178.755 93.623 178.531C93.7719 178.445 93.9029 178.373 94.0068 178.316C94.0079 178.268 94.0095 178.213 94.0107 178.152C94.0168 177.854 94.0244 177.415 94.0332 176.85C94.0508 175.719 94.0703 174.085 94.0781 172.075C94.0937 168.055 94.0623 162.528 93.875 156.507C93.5039 144.574 93.5808 117.158 91.4893 109.231C89.5718 108.685 86.0403 107.579 84.749 106.601C84.0739 106.089 83.5422 105.608 83.1787 105.255C82.9972 105.078 82.8564 104.933 82.7607 104.831C82.713 104.78 82.6767 104.738 82.6514 104.71C82.639 104.696 82.6289 104.685 82.6221 104.678C82.6187 104.674 82.6153 104.671 82.6133 104.669L82.6113 104.666L82.6104 104.665L82.6016 104.654L82.5996 104.652C82.5994 104.652 82.5971 104.649 82.5957 104.647C82.5925 104.643 82.588 104.637 82.582 104.63C82.5693 104.614 82.5497 104.591 82.5254 104.561C82.4767 104.5 82.4054 104.411 82.3145 104.296C82.1321 104.066 81.8702 103.73 81.5518 103.312C80.915 102.475 80.05 101.302 79.1377 99.957C77.3236 97.2821 75.2804 93.8665 74.5068 91.0459C71.6069 80.4715 70.2399 81.2424 69.5859 71.0605C69.2587 65.9658 69.1126 61.5296 69.0479 58.3672C69.0155 56.7861 69.0038 55.5226 69 54.6543C68.9981 54.2206 68.9984 53.8853 68.999 53.6582C68.9993 53.5448 68.9997 53.4577 69 53.3994V53.3145C68.9998 52.1527 68.1498 51.3172 66.3848 50.6465C64.6346 49.9815 62.2007 49.5672 59.4658 49.1396C56.754 48.7157 53.7699 48.2813 51.001 47.5674C48.2352 46.8542 45.6269 45.8494 43.6816 44.251C39.2135 40.5792 37.0589 34.5958 36.0107 29.6123C35.4844 27.1097 35.2312 24.8339 35.1104 23.1836C35.0499 22.358 35.0223 21.6876 35.0098 21.2227C35.0035 20.9902 35.0009 20.8084 35 20.6846V20.4922L35.0049 20H38C38.1135 21.5518 38.3512 26.6844 38.8389 29.0176C39.8411 33.8119 41.8027 38.9549 45.4414 41.9639C47.4475 43.6224 50.0596 44.3222 52.54 44.9316C54.8386 45.464 57.2792 45.825 59.6895 46.2041C63.1086 46.7419 67.5934 47.0807 70.1836 49.7168C71.1268 50.6767 71.6807 51.9139 71.6807 53.3262C71.6807 59.1807 71.8849 65.0344 72.2578 70.877C72.5717 75.7938 73.0414 77.8876 73.7246 79.9883C74.4245 82.1399 75.5886 84.9106 77.0479 90.2646C77.6761 92.5694 79.4522 95.6308 81.2451 98.291C82.2902 99.8416 83.5613 101.269 84.5811 102.825C86.0597 104.398 87.9912 105.661 90.0645 106.253C93.2588 107.107 96.7043 108 100 108C103.201 108 106.496 107.108 109.603 106.337C111.832 105.784 113.962 104.425 115.501 102.712L115.512 102.697C116.648 101.277 117.717 99.799 118.733 98.291C120.526 95.6308 122.303 92.5694 122.932 90.2646C124.393 84.9039 125.56 82.141 126.267 79.9834C126.954 77.8834 127.429 75.791 127.742 70.877C128.115 65.0344 128.319 59.1807 128.319 53.3262C128.319 51.9139 128.873 50.6767 129.816 49.7168C132.407 47.0807 136.891 46.7419 140.311 46.2041C143.065 45.7708 145.86 45.3599 148.437 44.6914C150.586 44.1179 152.818 43.4029 154.559 41.9639C158.197 38.9549 160.159 33.8119 161.161 29.0176C161.649 26.6844 161.886 21.5518 162 20H165.995L166 20.4922Z" fill="#D9D9D9"/>
</svg>
