<svg width="200" height="200" viewBox="0 0 200 200" fill="none" xmlns="http://www.w3.org/2000/svg">
<path d="M150 20C150 20 106 84.0781 104 108.039C102 132 102 140 104 162.8C106 185.6 135 200 135 200H65C65 200 94 185.6 96 162.8C98 140 98 132 96 108.039C94 84.0781 50 20 50 20H53C54.0536 21.5833 57.969 26.5212 59.4199 28.749C63.5916 35.1544 69.1787 43.9516 74.832 53.5068C80.4804 63.0537 85.5369 72.5022 90 82C90 82 94.9988 90 100 90C105.001 90 110 82 110 82C114.463 72.5022 119.52 63.0537 125.168 53.5068C130.821 43.9516 136.408 35.1544 140.58 28.749C142.031 26.5212 145.946 21.5833 147 20H150Z" fill="#D9D9D9"/>
</svg>
