<svg width="200" height="200" viewBox="0 0 200 200" fill="none" xmlns="http://www.w3.org/2000/svg">
<path d="M145.008 20C145.008 20.0086 145.552 48.2438 137.508 68C131.078 83.7925 119.008 87 114.008 92C109.633 96.375 105.008 104 105.008 108V167C105.008 192 137.008 200 137.008 200H63.0079C63.0712 199.984 95.0079 191.975 95.0079 167V108C95.0079 104 90.3828 96.375 86.0079 92C81.0079 87 68.9379 83.7925 62.5079 68C54.4628 48.2407 55.0079 20 55.0079 20H58.0176V23.043C58.0247 23.5262 58.0322 24.0622 58.0469 24.6455C58.1202 27.5506 58.3011 31.6311 58.7286 36.3174C59.5888 45.747 61.4307 57.3998 65.2862 66.8691C68.2546 74.1595 72.4888 78.5068 76.6163 81.6641C78.4593 83.0738 80.2656 84.2359 82.0157 85.3623C82.0157 85.3623 90 92 100 92C108.75 92 115.962 86.9229 117.629 85.6533L117.992 85.3682C119.745 84.24 121.552 83.076 123.398 81.6641C127.526 78.5068 131.761 74.1599 134.73 66.8691C138.585 57.3998 140.427 45.747 141.287 36.3174C141.715 31.6311 141.895 27.5506 141.968 24.6455C141.983 24.0447 141.961 20.4945 141.968 20H145.008Z" fill="#D9D9D9"/>
</svg>
