<svg width="200" height="200" viewBox="0 0 200 200" fill="none" xmlns="http://www.w3.org/2000/svg">
<path d="M140 20C140 20 169 81.836 169 124C169 141 161.874 149.94 149 159C136.115 168.067 126.129 169.143 111.177 169.892C110.044 174.821 109 180.348 109 184C109 192 157 200 157 200H43C43 200 91 192 91 184C91 180.348 89.9558 174.821 88.8232 169.892C73.8705 169.143 63.8847 168.067 51 159C38.1257 149.94 31 141 31 124C31 81.836 60 20 60 20H63C62.8699 20.2879 61.651 23.6088 61.4922 23.9639C60.7072 25.7191 59.5834 28.2796 58.2334 31.4854C55.5326 37.8987 51.9317 46.8863 48.332 57.1787C41.0996 77.858 34 103.455 34 124C34 132.048 35.6769 137.964 38.7246 142.901C41.8067 147.894 46.4308 152.117 52.7266 156.547C65.4763 165.519 75.0345 166.237 91.1426 167.003C92.8051 167.082 94.9821 167.083 96.7822 167.062C97.6738 167.052 98.4578 167.037 99.0186 167.024C99.2985 167.018 99.5225 167.012 99.6758 167.008C99.7524 167.006 99.8122 167.004 99.8516 167.003C99.871 167.002 99.8859 167.002 99.8955 167.002C99.9002 167.002 99.904 167.002 99.9062 167.002L100 166.999L100.091 167.001C100.093 167.001 100.1 167.002 100.104 167.002C100.114 167.002 100.129 167.002 100.148 167.003C100.188 167.004 100.248 167.006 100.324 167.008C100.477 167.012 100.701 167.018 100.981 167.024C101.542 167.037 102.326 167.052 103.218 167.062C105.018 167.083 107.195 167.082 108.857 167.003C124.965 166.237 134.524 165.519 147.273 156.547C153.569 152.117 158.193 147.894 161.275 142.901C164.323 137.964 166 132.048 166 124C166 103.455 158.9 77.858 151.668 57.1787C148.068 46.8863 144.467 37.8987 141.767 31.4854C140.417 28.2796 139.293 25.7191 138.508 23.9639C138.349 23.6088 137.13 20.2879 137 20H140Z" fill="#D9D9D9"/>
</svg>
