<svg width="200" height="200" viewBox="0 0 200 200" fill="none" xmlns="http://www.w3.org/2000/svg">
<path d="M142 19C142.5 20.8333 143.5 25 143.5 27C143.5 28.5711 142.676 29.8323 142 30.5439V32.5576C142.865 35.322 144 39.3507 144 41C144 43.5 143.5 44 143.5 45.5V53.5L143 54.5V58L150.5 70C150.833 70.5 151.5 71.8 151.5 73C151.5 74.2 150.5 75.5 150 76L146 79C146 79.8333 145.8 81.7 145 82.5C144.412 83.0882 143.068 84.9725 142 86.5254V92.1992L143.5 94C143.666 94.1667 144 94.8001 144 96C144 96.8662 142.956 98.6516 142 100.08V102.61C142.956 103.772 144 105.344 144 106.5C144 107.455 143.049 108.812 142 110V134.519C142.747 134.993 143.5 135.693 143.5 136.5V139C144 139.333 145 140.4 145 142V155C144.833 156.167 144 158.6 142 159V195C142 197.761 139.761 200 137 200H61.9997C59.2384 200 56.9997 197.761 56.9997 195V136.475C54.3704 132.212 54.8069 127.578 55.4997 125.5L56.9997 124.428V113.218C56.1865 111.854 55.4997 110.3 55.4997 109C55.4997 107.882 56.1528 106.505 56.9997 105.2V85.5C46.1998 61.5001 52.4997 31.1667 56.9997 19H59.9997V195C59.9997 196.104 60.8953 197 61.9997 197H137C138.104 197 139 196.105 139 195V19H142Z" fill="#B54C00"/>
</svg>
