<svg width="200" height="200" viewBox="0 0 200 200" fill="none" xmlns="http://www.w3.org/2000/svg">
<path d="M165.995 20L166 20.4924V20.6847C165.999 20.8085 165.996 20.9902 165.99 21.2227C165.978 21.6876 165.95 22.3579 165.89 23.1835C165.769 24.8339 165.516 27.1098 164.989 29.6126C163.941 34.5962 161.786 40.5792 157.318 44.251C155.373 45.8495 152.765 46.8544 149.999 47.5676C147.23 48.2815 144.246 48.716 141.534 49.1399C138.799 49.5674 136.365 49.9812 134.615 50.6461C132.85 51.317 132 52.1529 132 53.3149V53.3994C132 53.4576 132.001 53.5443 132.001 53.6577C132.002 53.8849 132.002 54.2202 132 54.6542C131.996 55.5224 131.985 56.7857 131.952 58.3669C131.887 61.5293 131.741 65.9652 131.414 71.0601C130.76 81.2425 129.372 80.4712 126.472 91.0461C125.698 93.8667 123.655 97.2816 121.841 99.9565C120.929 101.302 120.064 102.475 119.427 103.312C119.109 103.73 118.847 104.065 118.664 104.296C118.573 104.411 118.502 104.5 118.453 104.561C118.429 104.591 118.409 104.614 118.397 104.63C118.391 104.637 118.386 104.643 118.383 104.647C118.382 104.649 118.379 104.652 118.379 104.652L118.377 104.654L118.368 104.664L118.367 104.666L118.366 104.669C118.364 104.671 118.36 104.674 118.357 104.677C118.35 104.685 118.34 104.696 118.327 104.71C118.302 104.739 118.266 104.78 118.218 104.831C118.122 104.933 117.982 105.079 117.8 105.255C117.437 105.609 116.905 106.089 116.23 106.6C114.939 107.579 111.407 108.685 109.49 109.231C107.398 117.158 107.496 144.574 107.125 156.507C106.938 162.529 106.906 168.055 106.922 172.075C106.93 174.085 106.949 175.719 106.967 176.849C106.976 177.415 106.983 177.855 106.989 178.153C106.99 178.213 106.992 178.268 106.993 178.317C107.097 178.373 107.228 178.445 107.377 178.531C107.763 178.755 108.28 179.076 108.8 179.464C109.317 179.849 109.854 180.313 110.266 180.825C110.672 181.33 111 181.936 111 182.597V187.569C111 187.735 111.071 187.949 111.279 188.221C111.488 188.492 111.81 188.789 112.253 189.106C113.138 189.741 114.428 190.403 116.009 191.074C119.166 192.413 123.391 193.742 127.635 194.922C131.875 196.1 136.117 197.123 139.3 197.853C140.891 198.217 142.217 198.509 143.145 198.708C143.608 198.808 143.973 198.885 144.221 198.937C144.344 198.963 144.44 198.983 144.504 198.996C144.535 199.002 144.56 199.007 144.576 199.01C144.584 199.012 144.591 199.013 144.595 199.014L144.6 199.015C144.6 199.015 144.599 199.023 144.5 199.503L144.601 199.016L144.5 200H56.5L56.3994 199.016L56.5 199.503C56.4006 199.023 56.3994 199.016 56.3994 199.016L56.4004 199.015L56.4053 199.014C56.4093 199.013 56.4159 199.012 56.4238 199.01C56.44 199.007 56.4645 199.002 56.4961 198.996C56.56 198.983 56.6555 198.963 56.7793 198.937C57.0275 198.885 57.392 198.808 57.8555 198.708C58.7833 198.509 60.1092 198.217 61.7002 197.853C64.8833 197.123 69.1255 196.1 73.3652 194.922C77.6093 193.742 81.8344 192.413 84.9912 191.074C86.5724 190.403 87.8618 189.741 88.7471 189.106C89.1896 188.789 89.5123 188.492 89.7207 188.221C89.9291 187.949 90 187.735 90 187.569V182.597C90 181.936 90.3282 181.33 90.7344 180.825C91.1461 180.313 91.6831 179.849 92.2002 179.464C92.72 179.076 93.2374 178.755 93.623 178.531C93.772 178.445 93.9029 178.373 94.0068 178.317C94.0079 178.268 94.0095 178.213 94.0107 178.153C94.0168 177.855 94.0244 177.415 94.0332 176.849C94.0508 175.719 94.0703 174.085 94.0781 172.075C94.0937 168.055 94.0623 162.529 93.875 156.507C93.5039 144.574 93.5811 117.158 91.4896 109.231C89.5722 108.685 86.0406 107.579 84.7493 106.6C84.0741 106.089 83.5425 105.609 83.179 105.255C82.9973 105.079 82.8568 104.933 82.7611 104.831C82.7132 104.78 82.677 104.739 82.6517 104.71C82.6391 104.696 82.6293 104.685 82.6224 104.677C82.619 104.674 82.6156 104.671 82.6136 104.669L82.6116 104.666L82.6107 104.665L82.6019 104.654L82.5999 104.652C82.5999 104.652 82.5975 104.649 82.596 104.647C82.5928 104.643 82.5883 104.637 82.5823 104.63C82.5696 104.614 82.55 104.591 82.5257 104.561C82.477 104.5 82.4058 104.411 82.3148 104.296C82.1324 104.065 81.8705 103.73 81.5521 103.312C80.9153 102.475 80.0505 101.302 79.138 99.9565C77.3239 97.2816 75.2807 93.8667 74.5071 91.0461C71.6071 80.4712 70.2399 81.2425 69.5859 71.0601C69.2587 65.9652 69.1126 61.5293 69.0479 58.3669C69.0155 56.7857 69.0038 55.5224 69 54.6542C68.9981 54.2202 68.9984 53.8849 68.999 53.6577C68.9993 53.5443 68.9997 53.4576 69 53.3994V53.3149C69 52.1529 68.1502 51.317 66.3848 50.6461C64.6346 49.9812 62.2007 49.5674 59.4658 49.1399C56.754 48.716 53.7699 48.2815 51.001 47.5676C48.2352 46.8544 45.6269 45.8495 43.6816 44.251C39.2135 40.5792 37.0589 34.5962 36.0107 29.6126C35.4844 27.1098 35.2312 24.8339 35.1104 23.1835C35.0499 22.3579 35.0223 21.6876 35.0098 21.2227C35.0035 20.9902 35.0009 20.8085 35 20.6847V20.4924L35.0049 20H165.995Z" fill="#333333"/>
</svg>
