<svg width="200" height="200" viewBox="0 0 200 200" fill="none" xmlns="http://www.w3.org/2000/svg">
<path d="M145.008 20C145.008 20 145.553 48.2407 137.508 68C131.078 83.7926 119.008 87 114.008 92C109.633 96.375 105.008 104 105.008 108V117C105.008 117 105.008 142 105.008 167C105.008 192 137.008 200 137.008 200H63.0078C63.0078 200 95.0078 192 95.0078 167C95.0078 142 95.0078 117 95.0078 117V108C95.0078 104 90.3827 96.375 86.0078 92C81.0078 87 68.9378 83.7926 62.5078 68C54.4627 48.2407 55.0078 20 55.0078 20H145.008Z" fill="#333333"/>
</svg>
