<svg width="200" height="200" viewBox="0 0 200 200" fill="none" xmlns="http://www.w3.org/2000/svg">
<path d="M135 53C135.638 77.9029 136.815 94.0689 125 116C118.983 127.169 105 135.199 105 141.6C105 148 105 173.75 105 173.75C105 191 135 200 135 200H65.0001C65.0001 200 94.5333 191.14 94.9942 174.152L95.0001 173.75C95.0001 173.75 95.0001 148 95.0001 141.6C95.0001 135.199 81.017 127.169 75.0001 116C63.1853 94.0689 64.3618 77.9029 65.0001 53C65.3327 40.0226 69.0001 20 69.0001 20H131C131 20 134.667 40.0226 135 53Z" fill="#333333"/>
</svg>
