<svg width="234" height="63" viewBox="0 0 234 63" fill="none" xmlns="http://www.w3.org/2000/svg">
<path d="M148.094 48.1121C147.46 47.5027 147.168 46.9013 146.67 46.2111C145.286 44.2955 143.666 41.5356 143.112 39.2396C142.448 36.4858 142.434 33.1645 142.809 30.3778C145.492 14.5957 161.315 3.53789 176.283 0.943793C178.74 0.518062 181.424 0.339022 183.882 0.183489C189.018 -0.157435 194.174 -0.0230846 199.284 0.58491C209.111 1.72171 219.535 4.97308 227.787 10.475C229.768 11.7961 231.938 13.2118 233.419 15.0815C233.25 17.3025 230.661 22.5194 229.461 24.4632C228.025 27.1071 225.675 30.3222 223.777 32.6109C216.291 41.5505 206.906 48.7067 196.307 53.5579C191.691 55.7126 188.355 57.0727 183.28 57.9691C180.466 58.4889 177.611 58.7529 174.749 58.7572C164.785 58.6808 155.003 55.4939 148.094 48.1121Z" fill="#8C5226"/>
<path d="M229.62 23.9609C229.528 24.2142 229.404 24.4928 229.299 24.744C227.87 27.3744 225.531 30.5718 223.64 32.8474C216.186 41.7357 206.83 48.8437 196.257 53.6532C191.652 55.7896 188.325 57.1373 183.26 58.0194C180.451 58.5312 177.6 58.7881 174.744 58.7863C164.794 58.6892 155.021 55.4944 148.107 48.1273L148.127 48.0123L148.201 47.9924C148.61 48.493 149.166 48.8191 149.678 49.2009C151.864 50.8302 154.273 51.7436 156.95 52.1901C157.506 52.2865 158.065 52.4813 158.629 52.4997C160.275 52.5528 161.852 52.8397 163.515 52.7793C164.094 52.7585 164.908 52.9943 165.518 52.9683C166.944 52.907 168.365 52.7342 169.796 52.7206C170.045 52.7193 170.598 52.7912 170.802 52.7585C175.14 52.0582 179.482 51.5633 183.739 50.4308C186.358 49.735 188.834 48.7263 191.38 47.8127C193.366 47.0894 195.336 46.3286 197.291 45.5292C199.025 44.8352 200.766 44.1388 202.461 43.3381C207.478 40.9698 212.045 37.8683 216.684 34.8602C217.301 34.4521 217.866 33.9147 218.472 33.4977C220.952 31.7908 223.284 29.9597 225.499 27.9214C226.171 27.3027 226.928 26.7294 227.581 26.0912C228.275 25.4122 228.945 24.6629 229.62 23.9609Z" fill="#B16B35"/>
<path d="M229.142 16.1572C229.19 16.1881 229.162 16.1629 229.19 16.2595C228.633 16.784 227.928 16.997 227.305 17.3841C225.512 18.4984 223.631 19.3724 221.723 20.2809C210.774 25.4048 199.447 29.6869 187.84 33.0899C184.21 34.1865 180.396 35.3614 176.736 36.3279C171.975 37.5588 167.161 38.5786 162.309 39.3838C160.704 39.6459 158.88 39.8349 157.253 40.0912C156.846 40.1555 155.747 40.1106 155.213 40.1495C154.345 40.2119 153.159 40.4598 152.349 40.4904C151.295 40.5308 150.171 40.5161 149.088 40.55C148.133 40.4581 146.951 40.6671 146.021 40.5562C145.026 40.4375 144.555 40.2841 143.511 40.3216C143.366 40.0326 143.263 39.6271 143.168 39.3098C143.058 39.142 142.948 38.7635 142.906 38.5613C142.862 38.3494 142.928 38.139 143.061 37.9738C143.302 37.6756 144.413 36.7916 144.754 36.5625C145.393 36.1337 148.751 34.2269 149.227 34.1621C150.174 34.0322 151.044 33.2623 151.899 32.8071C154.432 31.4556 157.135 30.502 159.804 29.4675C162.069 28.5895 164.296 27.6485 166.611 26.8989C169.208 26.0585 171.812 25.1866 174.433 24.4271C178.385 23.3194 182.372 22.3424 186.389 21.4968C189.208 20.9087 192.145 20.4987 194.973 19.9164C195.857 19.7341 196.863 19.6701 197.77 19.5154C201.385 18.8985 205.015 18.2214 208.658 17.8028C209.393 17.7184 210.142 17.5262 210.887 17.4375C216.942 16.6718 223.037 16.2443 229.142 16.1572Z" fill="#B16B35"/>
<path d="M228.236 20.6526L228.262 20.7481C227.832 21.824 222.016 26.964 220.762 28.0016C218.06 30.2371 215.112 32.1918 212.17 34.0939C207.973 36.8059 203.597 39.4518 199.06 41.5522C196.382 42.7918 193.647 43.792 190.878 44.8029C189.746 45.216 188.652 45.7098 187.508 46.0936C184.649 47.0538 181.626 47.8709 178.668 48.4615C177.995 48.596 177.296 48.6349 176.617 48.7537C174.4 49.1429 172.274 49.3972 170.026 49.5329C168.819 49.6052 167.686 49.6787 166.477 49.5575C166.106 49.5208 165.801 49.5662 165.441 49.6449C164.024 49.956 159.534 49.1996 157.93 48.9891C157.389 48.9184 156.822 48.9192 156.288 48.817C155.696 48.7046 155.128 48.4433 154.547 48.2831C153.766 48.0679 152.967 47.9153 152.186 47.6911C151.02 47.3572 146.945 46.044 146.36 45.1519L145.958 44.5481C145.793 44.2968 145.566 44.0003 145.59 43.7153C145.726 43.6765 146.405 43.8097 146.604 43.8527C147.641 44.0762 148.524 44.0621 149.566 43.9406C149.851 43.907 150.255 43.9951 150.571 43.958C152.302 43.6288 154.401 43.8925 156.103 43.639C159.172 43.1824 162.272 42.677 165.337 42.1772C167.255 41.8653 169.196 41.3969 171.097 41.0105C172.508 40.7231 173.933 40.5371 175.334 40.1828C184.091 38.0745 192.666 35.4015 201.12 32.2976C202.173 31.9109 203.262 31.6091 204.315 31.2193C208.09 29.8096 211.825 28.2967 215.518 26.6827C217.49 25.8366 219.494 25.1634 221.359 24.0556C221.747 23.8253 222.453 23.7608 222.814 23.5454C224.574 22.4961 226.433 21.64 228.236 20.6526Z" fill="#B16B35"/>
<path d="M226.081 12.7169L226.169 12.7999C225.809 13.1275 220.641 13.1754 219.707 13.301C218.034 13.5267 216.19 13.537 214.476 13.8651C214.014 13.953 213.102 13.9421 212.569 14.0305C211.955 14.1323 211.339 14.236 210.726 14.3361C210.188 14.4239 209.495 14.4056 208.973 14.4919C207.574 14.7224 206.182 14.8964 204.781 15.088C203.926 15.2051 202.993 15.4641 202.137 15.5898C200.496 15.83 198.861 16.1206 197.226 16.3962C196.531 16.5136 195.718 16.8028 195.006 16.9212C194.347 17.0314 193.67 17.0885 193.014 17.2116C189.138 17.9392 185.237 18.6379 181.383 19.4718C178.607 20.0726 175.911 21.0154 173.204 21.7856C169.459 22.8505 166.018 24.0294 162.371 25.3436C158.811 26.6269 155.316 27.8541 151.853 29.4318C151.244 29.7094 150.515 29.9209 149.93 30.1913C149.445 30.4155 148.893 30.7889 148.385 31.0481C147.768 31.3628 147.044 31.598 146.471 31.891C146.114 32.0738 145.507 32.631 145.058 32.8904C144.487 33.2197 143.92 33.493 143.357 33.8187C142.948 34.0553 142.664 34.3399 142.206 34.5496C142.177 34.2036 142.175 34.096 142.21 33.7516L142.237 33.6236C142.281 33.7693 142.323 33.8993 142.373 34.0428L142.437 33.9881C142.275 32.7123 145.253 28.8499 146.076 27.8134C146.822 26.8725 147.991 26.1029 148.886 25.3285C149.748 24.5838 150.462 23.6286 151.34 22.8967C153.827 21.251 156.408 19.1536 159.032 17.7616C162.22 16.0707 166.251 14.5446 169.658 13.4044C174.535 11.7722 179.827 10.9817 184.901 10.3017C193.81 9.10797 202.87 8.80133 211.806 9.79533C212.694 9.89499 213.601 10.1066 214.491 10.2136C216.59 10.2529 218.517 10.9186 220.523 11.2585C222.627 11.6152 224.09 12.1414 226.081 12.7169Z" fill="#B16B35"/>
<path d="M91.1917 27.5962C91.4975 28.4213 91.4978 29.0896 91.6455 29.928C92.0561 32.255 92.3121 35.4452 91.81 37.7529C91.2078 40.5209 89.7734 43.5166 88.2216 45.8614C78.9302 58.8976 59.87 61.9562 45.2673 57.7694C42.8706 57.0821 40.3766 56.0738 38.0968 55.143C33.3256 53.2121 28.7433 50.8446 24.4083 48.0706C16.0588 42.7658 8.09232 35.2971 3.06288 26.7498C1.85521 24.6974 0.518578 22.4775 0 20.1492C1.12034 18.224 5.72321 14.6562 7.6506 13.4296C10.0956 11.6758 13.6111 9.80556 16.3171 8.57278C26.9495 3.78779 38.5153 1.43593 50.1692 1.68768C55.263 1.75956 58.8581 1.98879 63.8161 3.39299C66.5756 4.15129 69.2609 5.15798 71.838 6.40072C80.774 10.8114 88.1896 17.9417 91.1917 27.5962Z" fill="#8C5226"/>
<path d="M7.28832 13.8123C7.48143 13.6244 7.71481 13.4278 7.91892 13.2475C10.351 11.5024 13.8494 9.64365 16.5428 8.41928C27.1255 3.66724 38.6437 1.34594 50.2556 1.62363C55.3309 1.7069 58.9134 1.94386 63.8565 3.35668C66.6076 4.11982 69.2854 5.13073 71.8559 6.377C80.7693 10.7997 88.1739 17.9336 91.1869 27.5771L91.1185 27.6717L91.0434 27.6575C90.8934 27.0286 90.535 26.4929 90.2405 25.9261C88.9833 23.5074 87.2131 21.6357 84.9978 20.0671C84.5391 19.738 84.1214 19.3194 83.6213 19.0569C82.1627 18.2918 80.8685 17.3466 79.3451 16.6762C78.8152 16.4428 78.1856 15.8761 77.6246 15.6334C76.3143 15.0672 74.9607 14.604 73.6667 13.9926C73.4416 13.8851 72.9749 13.5794 72.7772 13.52C68.5676 12.2602 64.4435 10.8136 60.1188 9.97834C57.4585 9.46355 54.7902 9.29258 52.1005 9.00554C49.9981 8.79146 47.8928 8.6175 45.7849 8.48527C43.9221 8.35453 42.0516 8.22283 40.177 8.20493C34.6297 8.15073 29.1677 8.95251 23.6811 9.6386C22.9476 9.73689 22.2051 9.97449 21.4783 10.086C18.5026 10.5419 15.6054 11.1738 12.724 12.0435C11.8488 12.3072 10.9177 12.4934 10.0522 12.7834C9.13157 13.0922 8.20186 13.4746 7.28832 13.8123Z" fill="#B06B35"/>
<path d="M4.31886 21.0448C4.28875 20.9959 4.30364 21.0311 4.32025 20.9318C5.05 20.7023 5.77724 20.8177 6.50641 20.7406C8.60624 20.5191 10.6798 20.5519 12.7934 20.5656C24.8811 20.7244 36.9422 21.8056 48.8714 23.7995C52.6173 24.3945 56.5619 24.9987 60.277 25.7233C65.0984 26.6898 69.8758 27.8694 74.5946 29.2591C76.1534 29.7224 77.8775 30.3471 79.4535 30.8253C79.8473 30.9445 80.8177 31.4641 81.3153 31.6617C82.123 31.9834 83.2992 32.2774 84.0409 32.6024C85.0079 33.0256 86.0132 33.5286 87.0021 33.9697C87.822 34.4686 88.9772 34.7956 89.7658 35.3006C90.6093 35.8408 90.9664 36.1841 91.9223 36.6052C91.9274 36.9287 91.8431 37.3385 91.7902 37.6653C91.8164 37.8645 91.7505 38.2531 91.7003 38.4534C91.648 38.6635 91.4963 38.8238 91.3044 38.9145C90.9582 39.0782 89.5725 39.3896 89.1658 39.4472C88.4041 39.5548 84.5505 39.8079 84.094 39.6589C83.1852 39.3633 82.0661 39.677 81.099 39.7145C78.2294 39.8269 75.3814 39.5076 72.5279 39.2757C70.1073 39.0794 67.6927 38.956 65.2822 38.6219C62.579 38.247 59.8545 37.8968 57.1647 37.4385C53.1249 36.7136 49.1102 35.8557 45.1265 34.8667C42.3328 34.1677 39.5105 33.2569 36.7116 32.5491C35.8363 32.3278 34.9027 31.9471 34.0194 31.6913C30.4971 30.6716 26.9348 29.6994 23.4735 28.4889C22.7751 28.2446 22.0165 28.0909 21.3079 27.8464C15.5239 25.8972 9.85205 23.6266 4.31886 21.0448Z" fill="#B06B35"/>
<path d="M7.0926 17.3931L7.11141 17.2961C7.9671 16.515 15.4415 14.4226 17.0224 14.0352C20.4283 13.2003 23.9331 12.7251 27.4104 12.2952C32.3693 11.6827 37.4616 11.2082 42.4602 11.2944C45.4105 11.3453 48.3081 11.6368 51.2411 11.9335C52.4395 12.0546 53.6397 12.087 54.8368 12.2401C57.828 12.6213 60.9049 13.203 63.8249 13.9603C64.4898 14.1327 65.1357 14.4022 65.7985 14.591C67.9638 15.2068 69.988 15.9042 72.0702 16.7614C73.1887 17.2225 74.24 17.6497 75.2752 18.2855C75.5933 18.4803 75.8877 18.5723 76.2463 18.6585C77.6569 18.9958 81.3687 21.6329 82.7206 22.5212C83.177 22.8207 83.6877 23.067 84.1242 23.3918C84.6077 23.7508 85.0053 24.2336 85.4582 24.6307C86.0678 25.165 86.7203 25.6503 87.3255 26.1924C88.2293 27.0009 91.3247 29.9583 91.4632 31.0164L91.5614 31.7349C91.6011 32.0333 91.6756 32.3987 91.5304 32.6451C91.3908 32.6206 90.8377 32.2048 90.6773 32.0794C89.8409 31.4262 89.0407 31.0545 88.0499 30.7099C87.7779 30.6156 87.4535 30.3606 87.1524 30.2562C85.451 29.7983 83.6768 28.6464 82.0341 28.1329C79.073 27.2067 76.0627 26.311 73.0855 25.4251C71.2236 24.8703 69.2726 24.4463 67.3929 23.9656C65.9978 23.6096 64.6339 23.1559 63.219 22.8646C54.4179 20.9466 45.5353 19.6164 36.5739 18.7268C35.457 18.6158 34.3459 18.4132 33.2276 18.3049C29.2157 17.929 25.1945 17.6632 21.168 17.5072C19.0241 17.4094 16.9273 17.1423 14.7657 17.3267C14.3163 17.3651 13.6521 17.1152 13.2337 17.152C11.192 17.3294 9.146 17.2901 7.0926 17.3931Z" fill="#B06B35"/>
<path d="M5.57514 25.4751L5.53228 25.3622C5.99892 25.2241 10.6715 27.4328 11.5665 27.7265C13.1707 28.2524 14.835 29.0466 16.521 29.4982C16.9744 29.62 17.7912 30.0275 18.3096 30.1803C18.9061 30.3559 19.5059 30.5311 20.1016 30.7082C20.6234 30.8632 21.2395 31.1818 21.7467 31.3315C23.1067 31.7337 24.435 32.1834 25.7801 32.6217C26.6002 32.8886 27.5527 33.0619 28.3786 33.3221C29.96 33.8207 31.5579 34.2713 33.1499 34.7359C33.8266 34.933 34.6843 35.0269 35.3766 35.2305C36.018 35.4185 36.6524 35.6622 37.2962 35.837C41.1019 36.871 44.9175 37.9418 48.75 38.8706C51.5109 39.5396 54.3477 39.8654 57.1198 40.3516C60.9549 41.025 64.5658 41.4632 68.4212 41.8694C72.1845 42.2654 75.8653 42.6838 79.6692 42.7723C80.3389 42.7881 81.0867 42.9151 81.731 42.9266C82.2656 42.9364 82.9251 42.8407 83.4951 42.8286C84.1872 42.814 84.9418 42.9181 85.5847 42.9038C85.9856 42.8947 86.7751 42.6578 87.2928 42.6202C87.9498 42.5724 88.5788 42.5733 89.2278 42.5256C89.6991 42.4909 90.0791 42.3587 90.5819 42.3691C90.4578 42.6934 90.413 42.7912 90.2312 43.0859L90.1506 43.1891C90.1752 43.0391 90.1934 42.9035 90.2111 42.7526L90.1297 42.7739C89.7201 43.9931 85.3568 46.172 84.1644 46.7465C83.0821 47.2678 81.6953 47.4515 80.5517 47.7584C79.452 48.0533 78.3925 48.6017 77.2839 48.8782C74.3282 49.2757 71.0907 50.0387 68.1226 50.1485C64.5166 50.2815 60.2232 49.8986 56.6595 49.4404C51.5586 48.7845 46.4518 47.1905 41.588 45.5916C33.0488 42.7842 24.761 39.1129 17.1506 34.3245C16.3948 33.8479 15.6707 33.2623 14.9157 32.778C13.0439 31.8281 11.5999 30.3896 9.94227 29.2095C8.20391 27.9717 7.11598 26.8604 5.57514 25.4751Z" fill="#B06B35"/>
<path d="M89.5205 54.9419C88.8076 54.426 88.436 53.8706 87.8472 53.2558C86.2124 51.5496 84.2263 49.04 83.361 46.8424C82.3231 44.2067 81.8504 40.9191 81.837 38.1074C82.3147 22.106 96.4591 8.96896 110.925 4.33263C113.3 3.5717 115.933 3.0237 118.346 2.53025C123.386 1.48335 128.511 0.904355 133.656 0.800752C143.546 0.56959 154.32 2.35015 163.251 6.65987C165.396 7.69473 167.741 8.79711 169.466 10.4443C169.605 12.6675 167.762 18.1918 166.842 20.2828C165.784 23.0997 163.901 26.6085 162.337 29.1374C156.158 39.0251 147.851 47.4089 138.023 53.6773C133.749 56.4489 130.633 58.2567 125.731 59.8453C123.015 60.7487 120.223 61.4045 117.39 61.8039C107.51 63.1044 97.3825 61.2989 89.5205 54.9419Z" fill="#8C5226"/>
<path d="M166.93 19.7633C166.874 20.0268 166.789 20.32 166.72 20.5833C165.668 23.3858 163.793 26.8756 162.235 29.3905C156.079 39.2231 147.794 47.5551 137.987 53.7786C133.721 56.5305 130.612 58.3248 125.717 59.8979C123.006 60.7927 120.218 61.4408 117.389 61.8336C107.521 63.1114 97.4001 61.2969 89.5351 54.9552L89.5394 54.8385L89.6097 54.8086C90.084 55.2479 90.6797 55.4941 91.2395 55.8015C93.6291 57.1134 96.141 57.6853 98.8544 57.7579C99.4186 57.7765 99.9986 57.8924 100.56 57.8326C102.198 57.6579 103.799 57.7242 105.438 57.4347C106.008 57.3342 106.847 57.4553 107.448 57.3453C108.852 57.0877 110.235 56.7204 111.65 56.5093C111.897 56.4735 112.455 56.4683 112.652 56.4078C116.852 55.1152 121.084 54.0253 125.144 52.3158C127.641 51.2651 129.955 49.924 132.35 48.6676C134.217 47.6769 136.064 46.6514 137.889 45.5896C139.51 44.6629 141.139 43.7327 142.707 42.7055C147.348 39.6672 151.443 35.9646 155.623 32.3447C156.178 31.8552 156.663 31.245 157.205 30.7483C159.426 28.7153 161.483 26.5797 163.395 24.2551C163.976 23.5494 164.646 22.877 165.204 22.1549C165.798 21.3865 166.358 20.5518 166.93 19.7633Z" fill="#B06B35"/>
<path d="M165.378 12.1005C165.431 12.1244 165.399 12.1034 165.44 12.1952C164.961 12.7916 164.292 13.0999 163.729 13.5693C162.107 14.9206 160.365 16.0459 158.6 17.2093C148.463 23.7962 137.836 29.6015 126.811 34.5747C123.367 36.1622 119.752 37.8525 116.261 39.3152C111.715 41.1917 107.088 42.8665 102.393 44.3342C100.84 44.8155 99.0594 45.2546 97.4835 45.7331C97.0899 45.8528 95.9943 45.9603 95.4709 46.0726C94.6207 46.2541 93.4795 46.6635 92.6822 46.8056C91.6431 46.9913 90.5279 47.132 89.4606 47.315C88.5017 47.3559 87.3596 47.7262 86.4234 47.7448C85.422 47.7646 84.9343 47.6777 83.9056 47.8589C83.7215 47.5928 83.5639 47.2053 83.4261 46.9042C83.2937 46.7533 83.1325 46.3936 83.0628 46.1992C82.9896 45.9954 83.0266 45.7778 83.1357 45.5958C83.3325 45.2673 84.3113 44.2382 84.6173 43.9643C85.1908 43.4514 88.2535 41.099 88.7158 40.9691C89.6355 40.7097 90.3916 39.8269 91.1746 39.2582C93.4976 37.5697 96.0426 36.252 98.5435 34.8588C100.665 33.6765 102.741 32.4369 104.93 31.3748C107.386 30.1839 109.845 28.9606 112.336 27.8465C116.097 26.2036 119.911 24.6853 123.773 23.2931C126.484 22.3213 129.336 21.5097 132.056 20.5423C132.907 20.2398 133.894 20.0373 134.771 19.7589C138.266 18.6488 141.767 17.4769 145.318 16.5592C146.034 16.3741 146.75 16.0802 147.475 15.8896C153.367 14.2949 159.344 13.0299 165.378 12.1005Z" fill="#B06B35"/>
<path d="M165.102 16.6779L165.141 16.7689C164.864 17.8938 159.813 23.7879 158.714 24.9886C156.347 27.5758 153.698 29.9189 151.046 32.2092C147.264 35.4747 143.295 38.6996 139.092 41.4064C136.611 43.004 134.04 44.3723 131.437 45.756C130.373 46.3214 129.358 46.9615 128.278 47.4997C125.579 48.8455 122.698 50.0722 119.85 51.0656C119.201 51.2919 118.514 51.4269 117.858 51.6384C115.716 52.33 113.646 52.8754 111.438 53.3202C110.252 53.5587 109.141 53.7878 107.927 53.8347C107.554 53.8497 107.258 53.9368 106.912 54.0645C105.552 54.5682 101.001 54.4391 99.3834 54.4521C98.8374 54.4568 98.2761 54.5359 97.7326 54.5085C97.1312 54.4789 96.5322 54.2986 95.9351 54.2201C95.1314 54.1149 94.3191 54.0741 93.5147 53.9599C92.314 53.7902 88.097 53.0522 87.3937 52.2496L86.9128 51.707C86.7139 51.481 86.4488 51.2187 86.4326 50.9331C86.5623 50.8759 87.2532 50.9141 87.4561 50.9291C88.5145 51.0072 89.3864 50.8714 90.4016 50.6072C90.6801 50.5344 91.0915 50.566 91.3998 50.4855C93.0687 49.9204 95.1838 49.8918 96.8348 49.4056C99.8111 48.5296 102.811 47.6009 105.779 46.6826C107.635 46.1089 109.492 45.3769 111.322 44.7316C112.68 44.2521 114.066 43.8711 115.404 43.3268C123.786 40.0293 131.91 36.1977 139.854 31.9561C140.844 31.4276 141.88 30.9784 142.87 30.4468C146.414 28.5293 149.904 26.5151 153.338 24.4067C155.175 23.2963 157.066 22.3528 158.761 20.998C159.113 20.7164 159.804 20.5549 160.131 20.2917C161.73 19.0094 163.453 17.9049 165.102 16.6779Z" fill="#B06B35"/>
<path d="M161.872 9.11587L161.97 9.18593C161.659 9.56013 156.547 10.3212 155.64 10.5746C154.014 11.0292 152.189 11.294 150.536 11.8557C150.092 12.0064 149.186 12.1217 148.67 12.2829C148.077 12.4685 147.481 12.6562 146.887 12.8401C146.367 13.0013 145.678 13.0789 145.173 13.2364C143.819 13.658 142.465 14.0224 141.103 14.4058C140.273 14.6398 139.385 15.0252 138.554 15.2679C136.962 15.7324 135.383 16.246 133.801 16.7448C133.129 16.957 132.364 17.3557 131.676 17.5712C131.038 17.7715 130.375 17.9216 129.743 18.134C126.004 19.3899 122.237 20.6207 118.535 21.9788C115.868 22.9573 113.329 24.2633 110.754 25.3999C107.192 26.9719 103.946 28.6147 100.516 30.42C97.1672 32.1826 93.8748 33.8808 90.6635 35.9215C90.0981 36.2806 89.4058 36.5907 88.8638 36.9393C88.414 37.2283 87.9189 37.6744 87.4518 38.0013C86.8846 38.3981 86.1995 38.7311 85.673 39.1003C85.3447 39.3307 84.8202 39.9664 84.4106 40.2855C83.8911 40.6904 83.3677 41.0393 82.8547 41.4396C82.4822 41.7305 82.2398 42.0516 81.8161 42.3225C81.7389 41.9839 81.7218 41.8777 81.7092 41.5316L81.7187 41.401C81.7817 41.5394 81.842 41.6623 81.9111 41.7975L81.967 41.7345C81.6298 40.4934 84.0458 36.2567 84.7177 35.1165C85.3276 34.0815 86.3783 33.1579 87.1585 32.2672C87.9087 31.4107 88.4846 30.366 89.2524 29.5199C91.4886 27.5465 93.7557 25.1127 96.1621 23.3716C99.0858 21.2568 102.868 19.1886 106.085 17.5887C110.69 15.2987 115.821 13.7851 120.753 12.4108C129.412 9.99808 138.342 8.44329 147.33 8.19363C148.223 8.16971 149.151 8.25403 150.048 8.23701C152.132 7.98618 154.132 8.37936 156.165 8.43895C158.299 8.50168 159.821 8.82075 161.872 9.11587Z" fill="#B06B35"/>
</svg>
