<svg width="578" height="240" viewBox="0 0 578 240" fill="none" xmlns="http://www.w3.org/2000/svg">
<path d="M564.142 190.203C560.548 203.875 571.398 228.862 577.273 239.646C573.945 237.206 563.45 230.793 548.093 224.662C512.166 244.973 436.683 218.652 418.56 211.3C367.24 225.283 296.79 215.323 235.019 208.347C173.249 201.37 177.183 231.149 83.6667 197.968C-9.8493 164.786 -5.3891 64.3356 5.84037 67.3603C17.0698 70.3851 72.0289 67.935 166.275 49.6411C260.521 31.3471 272.022 -25.1528 436.071 12.8902C600.119 50.9331 568.634 173.113 564.142 190.203Z" fill="#72AF01"/>
<path d="M235.32 208.114C173.55 201.138 177.484 230.917 83.968 197.735C109.881 199.195 168.597 200.14 196.154 192.242C210.294 166.775 314.048 167.071 329.81 180.957C345.572 194.842 487.29 175.825 548.394 224.429C512.467 244.74 436.984 218.42 418.861 211.067C367.542 225.05 297.091 215.09 235.32 208.114Z" fill="#548D02"/>
</svg>
