<svg width="40" height="154" viewBox="0 0 40 154" fill="none" xmlns="http://www.w3.org/2000/svg">
<path d="M22.5 2.5C22.5112 1.83696 22.2576 1.20107 21.7886 0.732233C21.3199 0.263392 20.6742 -2.38419e-07 20 -2.38419e-07C19.3258 -2.38419e-07 18.6801 0.263392 18.2114 0.732233C17.7424 1.20107 17.4888 1.83696 17.5 2.5C17.5417 5 17.5833 7.5 17.625 10C18.375 55 19.125 100 19.875 145C19.9167 147.5 19.9583 150 20 152.5C20.0417 150 20.0833 147.5 20.125 145C20.875 100 21.625 55 22.375 10C22.4167 7.5 22.4583 5 22.5 2.5Z" fill="#997F68"/>
<path d="M18.5 152C18.496 152.398 18.6505 152.779 18.9318 153.061C19.2131 153.342 19.5981 153.5 20 153.5C20.4019 153.5 20.7869 153.342 21.0682 153.061C21.3495 152.779 21.504 152.398 21.5 152C21.475 149.5 21.45 147 21.425 144.5C20.975 99.5 20.525 54.5 20.075 9.5C20.05 7 20.025 4.49998 20 2C19.975 4.49998 19.95 7 19.925 9.5C19.475 54.5 19.025 99.5 18.575 144.5C18.55 147 18.525 149.5 18.5 152Z" fill="#997F68"/>
<path d="M20 50.3558C24.7701 46.9117 30.2566 45.9256 34.4544 48.3047C40.9041 51.9601 41.8683 62.1743 36.6078 71.1187C32.4985 78.1055 25.8065 82.2508 20 81.9882C14.1935 82.2508 7.50147 78.1055 3.39221 71.1187C-1.86828 62.1743 -0.904076 51.9601 5.54563 48.3047C9.74341 45.9256 15.2299 46.9117 20 50.3558Z" fill="#261412"/>
<path d="M20 84.3558C24.7701 80.9117 30.2566 79.9256 34.4544 82.3047C40.9041 85.9601 41.8683 96.1743 36.6078 105.119C32.4985 112.106 25.8065 116.251 20 115.988C14.1935 116.251 7.50147 112.106 3.39221 105.119C-1.86828 96.1743 -0.904076 85.9601 5.54563 82.3047C9.74341 79.9256 15.2299 80.9117 20 84.3558Z" fill="#261412"/>
<path d="M15 5C15 2.23858 17.2386 0 20 0V0C22.7614 0 25 2.23858 25 5V25H15V5Z" fill="#997F68"/>
</svg>
