<svg width="228" height="107" viewBox="0 0 228 107" fill="none" xmlns="http://www.w3.org/2000/svg">
<path d="M7.29501 18.4201C8.71649 13.9491 16.2477 9.43715 20.3017 7.28395C44.1973 -5.4078 88.3741 -1.79499 101.871 24.7517C103.827 29.0119 104.059 32.3742 104.212 36.9439C101.96 32.5063 100.702 28.0204 96.7519 24.3108C81.7412 10.216 53.0827 14.7573 34.512 16.9026C29.6789 17.4625 24.9779 18.0364 20.2046 18.3587C16.4439 18.6151 10.5041 19.8389 7.29501 18.4201Z" fill="#472A10"/>
<path d="M0.288124 35.9935C-0.40241 30.6351 0.276935 26.2405 4.68399 22.7645C9.14976 22.1095 17.0708 22.4241 22.298 22.0413C44.3677 20.5636 69.8768 15.7341 90.7442 25.0809C100.523 29.4598 105.714 37.8341 100.45 47.9408L100.283 48.214C82.4236 76.501 8.75511 73.976 0.288124 35.9935Z" fill="#472A10"/>
<path d="M123.103 42.2278C123.002 41.8839 122.911 41.5416 122.827 41.1953C121.945 37.4755 124.121 32.8975 126.026 29.8063C133.502 17.6741 148.306 11.2677 161.67 8.16629C177.866 4.40953 197.711 6.14867 211.996 15.117C219.094 19.6886 229.942 30.8513 214.737 34.5773C210.242 35.6788 204.215 36.1377 199.534 36.7828L171.831 40.6007L147.482 43.9957C143.129 44.6043 138.764 45.2797 134.398 45.7865C129.539 46.3468 126.174 46.6353 123.103 42.2278Z" fill="#3B230F"/>
<path d="M139.238 69.9238C140.31 76.5704 133.528 82.3229 128.666 85.9497C114.099 96.8178 93.8418 101.434 75.9354 98.9605C67.6993 97.8206 56.3058 93.9097 51.2955 87.1747C48.6867 82.1595 51.7537 77.5705 56.0146 74.8644C73.5166 63.7462 94.0582 55.2516 115.147 58.9157C122.69 60.2245 134.906 63.9388 139.238 69.9238Z" fill="#563212"/>
<path d="M125.714 61.1439C125.627 60.7703 125.55 60.3943 125.484 60.0163C124.088 51.7336 134.955 51.7256 140.521 50.9549L158.39 48.4897C176.858 45.9268 195.311 43.3452 213.797 40.8271C217.979 39.9494 223.505 41.9319 223.848 46.8671C224.148 51.1735 221.166 55.177 218.556 58.2899C211.566 65.753 206.459 69.5369 197.214 74.1153C177.927 83.6667 136.101 84.0308 125.714 61.1439Z" fill="#3B230F"/>
<path d="M143.165 51.7628C144.122 54.7055 144.274 58.5934 141.417 60.5647C136.304 64.0965 130.928 59.153 126.538 57.2003C100.964 45.8265 71.6294 56.2413 52.0596 74.3789C51.2728 75.1057 49.2899 76.4737 48.1633 76.1648C43.1727 74.7988 43.9068 66.6272 44.529 62.7371C50.3413 30.3552 99.3536 20.4058 125.186 32.3267C134.352 36.5548 139.716 42.4998 143.165 51.7628Z" fill="#563212"/>
</svg>
