<svg width="56" height="49" viewBox="0 0 56 49" fill="none" xmlns="http://www.w3.org/2000/svg">
<path d="M4.55874 38.1469C4.21807 37.2129 4.39692 35.939 4.40398 34.9771C5.16784 35.0001 5.676 35.0353 6.44043 35.1348C8.00296 35.2371 13.2513 35.9134 15.0396 40.1555C15.1223 40.4743 15.1845 40.7984 15.2253 41.1255C15.3492 42.0473 15.1921 43.476 14.7594 44.3587L14.1996 44.9594C12.9099 45.8603 11.5643 45.8664 10.0785 45.5876C9.34538 45.4501 8.11259 45.0531 7.57887 44.515C5.66787 42.6615 4.7692 39.4973 4.55874 38.1469Z" fill="#64B333"/>
<path d="M1.83586 10.3829C2.00248 7.77195 3.44956 2.3105 4.48366 0C6.30013 0.863225 7.4875 1.48538 9.22456 2.53336C11.098 3.66361 14.4049 5.19345 15.2014 7.45825C15.2072 7.47497 15.213 7.49174 15.2186 7.50856C15.4555 7.02765 15.6939 6.52518 15.9541 6.05832C18.4411 8.3679 23.3753 14.1286 23.2165 18.6948C23.676 18.1628 23.9416 17.928 24.4838 17.4873C24.6003 17.6999 24.7638 18.0231 24.7902 18.2626C24.9537 19.7437 24.8641 22.2825 24.6387 23.7255C24.501 24.5814 24.3082 25.4281 24.0604 26.2596C23.3843 28.612 21.4951 31.8889 19.5188 33.5587L17.5347 34.4141C13.4739 35.2216 10.2249 33.8133 6.93892 31.5704C5.31767 30.4638 2.76652 28.2036 2.04934 26.3424C2.62997 26.2962 3.05583 26.2785 3.62259 26.1151C1.84521 22.8169 -1.2587 15.3769 0.544698 12.0021C1.13888 12.1234 1.67272 12.2192 2.24617 12.423C2.10462 11.9011 1.80348 10.8905 1.83586 10.3829Z" fill="#50882C"/>
<path d="M39.9765 9.39122C43.2789 7.6784 50.9926 5.43369 54.5655 4.99792C54.8469 7.84373 54.9603 9.74642 54.9584 12.6311C54.9564 15.7422 55.5195 20.8925 53.3454 23.5243C53.3293 23.5437 53.3131 23.563 53.2968 23.5822C54.0563 23.5178 54.8432 23.4395 55.6028 23.4139C55.1047 26.4545 53.7442 30.6745 51.2762 32.7008C52.2582 32.9967 52.837 32.9758 53.8569 33.0212C52.2902 35.9686 48.6615 40.1865 45.5405 41.5312C46.5254 41.7005 47.0063 41.8517 47.941 42.1888C47.7675 42.4867 47.4938 42.9229 47.2214 43.1308C45.5376 44.4167 42.3795 46.1703 40.4566 46.9546C39.3131 47.4148 38.1403 47.8013 36.9458 48.1095C33.5845 49.0122 28.2071 49.1154 24.7233 47.9335L22.2256 46.1445C18.2626 41.7911 17.5939 36.8005 17.9147 31.1526C18.073 28.366 18.954 23.6003 20.6947 21.3612C21.1771 22.0345 21.511 22.5402 22.1259 23.1106C22.878 19.6161 25.0872 16.0871 27.7605 13.5957C27.7998 13.5591 27.9374 13.5312 27.9928 13.5255C28.4601 13.7473 28.6118 14.2129 28.7776 14.6797C28.8912 15.0086 28.9998 15.339 29.1036 15.6711C30.3074 13.0095 34.4702 10.226 37.057 9.00663C37.3453 9.81932 37.6202 10.5399 37.7927 11.3878C38.3245 10.8325 39.3345 9.72423 39.9765 9.39122Z" fill="#529329"/>
</svg>
