<svg width="35" height="154" viewBox="0 0 35 154" fill="none" xmlns="http://www.w3.org/2000/svg">
<path d="M20.186 2.5C20.1972 1.83696 19.9437 1.20107 19.4746 0.732233C19.006 0.263392 18.3603 -2.38419e-07 17.686 -2.38419e-07C17.0118 -2.38419e-07 16.3661 0.263392 15.8974 0.732233C15.4284 1.20107 15.1748 1.83696 15.186 2.5C15.2277 5 15.2694 7.5 15.311 10C16.061 55 16.811 100 17.561 145C17.6027 147.5 17.6444 150 17.686 152.5C17.7277 150 17.7694 147.5 17.811 145C18.561 100 19.311 55 20.061 10C20.1027 7.5 20.1444 5 20.186 2.5Z" fill="#997F68"/>
<path d="M16.186 152C16.182 152.398 16.3365 152.779 16.6179 153.061C16.8991 153.342 17.2842 153.5 17.686 153.5C18.0879 153.5 18.473 153.342 18.7542 153.061C19.0356 152.779 19.1901 152.398 19.186 152C19.161 149.5 19.136 147 19.111 144.5C18.661 99.5 18.211 54.5 17.761 9.5C17.736 7 17.711 4.49998 17.686 2C17.661 4.49998 17.636 7 17.611 9.5C17.161 54.5 16.711 99.5 16.261 144.5C16.236 147 16.211 149.5 16.186 152Z" fill="#997F68"/>
<path d="M12.686 5C12.686 2.23858 14.9246 0 17.686 0V0C20.4475 0 22.686 2.23858 22.686 5V25H12.686V5Z" fill="#997F68"/>
<path d="M22.5806 63.521C13.5578 66.9854 3.8362 63.5244 0.866694 55.7906C-2.10281 48.0569 2.80431 38.979 11.827 35.5145C20.8498 32.0501 30.5714 35.5111 33.5409 43.2449C36.5104 50.9787 31.6033 60.0566 22.5806 63.521Z" fill="#DD8D3C"/>
<path d="M30.7188 51.1808C28.5008 52.0324 25.7992 50.3695 24.6846 47.4666C23.57 44.5637 24.4644 41.5201 26.6824 40.6685C28.9004 39.8168 31.602 41.4797 32.7166 44.3826C33.8312 47.2855 32.9368 50.3292 30.7188 51.1808Z" fill="#FFDB99"/>
<path d="M22.5806 94.3511C13.5578 97.8155 3.8362 94.3545 0.866694 86.6207C-2.10281 78.887 2.80431 69.809 11.827 66.3446C20.8498 62.8802 30.5714 66.3412 33.5409 74.075C36.5104 81.8087 31.6033 90.8867 22.5806 94.3511Z" fill="#DD8D3C"/>
<path d="M30.7188 82.0109C28.5008 82.8625 25.7992 81.1996 24.6846 78.2967C23.57 75.3938 24.4644 72.3502 26.6824 71.4985C28.9004 70.6469 31.602 72.3098 32.7166 75.2127C33.8312 78.1156 32.9368 81.1593 30.7188 82.0109Z" fill="#FFDB99"/>
<path d="M22.5806 125.351C13.5578 128.815 3.8362 125.354 0.866694 117.621C-2.10281 109.887 2.80431 100.809 11.827 97.3446C20.8498 93.8802 30.5714 97.3412 33.5409 105.075C36.5104 112.809 31.6033 121.887 22.5806 125.351Z" fill="#DD8D3C"/>
<path d="M30.7188 113.011C28.5008 113.863 25.7992 112.2 24.6846 109.297C23.57 106.394 24.4644 103.35 26.6824 102.499C28.9004 101.647 31.602 103.31 32.7166 106.213C33.8312 109.116 32.9368 112.159 30.7188 113.011Z" fill="#FFDB99"/>
</svg>
