<svg width="200" height="200" viewBox="0 0 200 200" fill="none" xmlns="http://www.w3.org/2000/svg">
<path d="M126 20C126.008 20.0223 168.33 140.823 105 146.771V173.75C105 200 140 200 140 200H60C60 200 95 200 95 173.75V146.771C31.6642 140.822 74 20 74 20H77C76.717 20.8635 75.5129 24.9894 75.0908 26.3477C74.0237 29.7817 72.5746 34.6948 71.0537 40.5928C68.0069 52.4079 64.6929 68.0911 63.5547 83.7178C62.4103 99.4304 63.5013 114.665 68.8975 125.854C71.5683 131.391 75.2658 135.88 80.2373 139.002C85.2089 142.124 91.6485 144 100 144C108.351 144 114.791 142.124 119.763 139.002C124.734 135.88 128.432 131.391 131.103 125.854C136.499 114.665 137.59 99.4304 136.445 83.7178C135.307 68.0911 131.993 52.4079 128.946 40.5928C127.425 34.6948 125.976 29.7817 124.909 26.3477C124.487 24.9893 123.283 20.8635 123 20H126Z" fill="#333333"/>
</svg>
