<svg width="200" height="200" viewBox="0 0 200 200" fill="none" xmlns="http://www.w3.org/2000/svg">
<path d="M158.011 20C158.02 20.0367 160.195 29.7176 160.011 36C159.517 52.9344 154.581 64.8569 141.011 75C133.576 80.5576 125.011 84.0002 119.011 93C113.011 102 106.011 113 106.011 140.5V183C106.011 193 141.011 200 141.011 200H59.0115C59.1566 199.971 94.0115 192.979 94.0115 183V140.5C94.0115 113 87.0114 102 81.0115 93C75.0116 84.0001 66.4465 80.5575 59.0115 75C45.4417 64.8568 40.5062 52.9345 40.0115 36C39.8276 29.7057 42.0115 20 42.0115 20H44.9997C44.8312 20.8756 44.0946 24.9442 43.9031 26.1211C43.3855 29.3008 42.9264 33.0659 43.0095 35.9121C43.2492 44.1159 44.5598 50.8918 47.323 56.7705C50.0742 62.6237 54.3525 67.7724 60.8064 72.5967C62.5711 73.9158 64.4215 75.1236 66.3601 76.3662C66.6182 76.5316 66.8787 76.6979 67.1404 76.8652C67.1795 76.8909 78.0396 83.9999 99.9997 84C122 84 132.883 76.8652 132.883 76.8652C133.144 76.698 133.404 76.5315 133.662 76.3662C135.6 75.1237 137.45 73.9157 139.215 72.5967C145.669 67.7723 149.948 62.6239 152.699 56.7705C155.462 50.8918 156.773 44.1159 157.012 35.9121C157.096 33.0659 156.636 29.3008 156.119 26.1211C155.927 24.9441 155.168 20.8755 155 20H158.011Z" fill="#333333"/>
</svg>
