<svg width="200" height="200" viewBox="0 0 200 200" fill="none" xmlns="http://www.w3.org/2000/svg">
<path d="M135 20C135 20 124 36 124 62C124 88 135 100.5 135 123C135 136.644 126.357 146.979 116.99 153H117C117 153 105.156 166.83 107.38 168.843C109.603 170.856 111 173.765 111 177C111 180.044 109.763 182.798 107.765 184.79C105.767 186.782 109.618 188.524 111.281 190.582C116.866 197.496 132 200 132 200H68C68 200 83.1318 197.496 88.7168 190.583C90.3801 188.524 94.2322 186.782 92.2344 184.79C90.2366 182.798 89 180.044 89 177C89 173.765 90.3961 170.856 92.6191 168.843C94.8422 166.83 83 153 83 153H83.0098C73.6425 146.979 65 136.644 65 123C65 100.5 76 88 76 62C76 36 65 20 65 20H68C68.9467 21.8728 72.2033 27.2827 73.3047 30.1865C76.1593 37.7124 79 48.574 79 62C79 75.4618 76.138 85.4386 73.374 94.6729C73.284 94.9736 73.1941 95.2733 73.1045 95.5723C70.4421 104.455 68 112.604 68 123C68 135.27 75.7761 144.784 84.6318 150.477L93.2246 156C93.2246 156 96 157.815 100 157.815C104 157.815 106.775 156 106.775 156L115.368 150.477C124.224 144.784 132 135.27 132 123C132 112.604 129.558 104.455 126.896 95.5723C126.892 95.5589 126.888 95.5455 126.884 95.5322C126.798 95.2466 126.712 94.9601 126.626 94.6729C123.862 85.4386 121 75.4618 121 62C121 48.574 123.841 37.7124 126.695 30.1865C127.797 27.2827 131.053 21.8728 132 20H135Z" fill="#333333"/>
</svg>
