<svg width="200" height="200" viewBox="0 0 200 200" fill="none" xmlns="http://www.w3.org/2000/svg">
<path d="M133 20C133 20 128 32 128 40C128 48 137 64 137 83C137 102 111 111.5 109 115C107 118.5 104.5 122 104.5 126V186L109 189C109 200 133 200 133 200H67C67 200 91 200 91 189L95.5 186V126C95.5 122 93 118.5 91 115C89 111.5 63 102 63 83C63 64 72 48 72 40C72 32 67 20 67 20H70C70.3255 20.93 72.0112 24.9788 72.3633 26.1055C73.6272 30.15 75 35.517 75 40C75 42.4612 74.3234 45.3181 73.4756 48.2539C72.6327 51.1728 71.4498 54.7078 70.3691 58.25C68.1433 65.5458 66 73.9535 66 83C66 91.0309 71.4984 97.377 78.0781 102.434C81.243 104.866 84.479 106.865 87.1797 108.533L87.3584 108.644C87.3584 108.644 89.5 111 99 111C108.5 111 112.642 108.644 112.642 108.644L112.82 108.533C115.521 106.865 118.757 104.866 121.922 102.434C128.502 97.377 134 91.0309 134 83C134 73.9535 131.857 65.5458 129.631 58.25C128.55 54.7078 127.367 51.1728 126.524 48.2539C125.677 45.3181 125 42.4612 125 40C125 35.517 126.373 30.15 127.637 26.1055C127.989 24.9788 129.675 20.93 130 20H133Z" fill="white"/>
</svg>
