<svg width="200" height="200" viewBox="0 0 200 200" fill="none" xmlns="http://www.w3.org/2000/svg">
<path d="M131 20C131 20 134.667 40.0226 135 53C135.638 77.9029 136.815 94.0689 125 116C118.983 127.169 105 135.199 105 141.6V173.75C105 190.984 134.945 199.983 135 200H65C65 200 94.5332 191.14 94.9942 174.152L95 173.75C95 173.75 95 148 95 141.6C95 135.199 81.017 127.169 75 116C63.1853 94.0689 64.3617 77.9028 65 53C65.3325 40.0293 68.9962 20.0206 69 20H72C71.9559 20.2586 71.4301 23.535 71.3809 23.8281C71.0347 25.891 70.569 28.7761 70.0938 32.0625C69.1384 38.6689 68.1606 46.7743 67.999 53.0771C67.3581 78.0841 66.2602 93.4504 77.6416 114.577C77.6416 114.577 80.0001 122 100 122C119.978 122 122.354 114.594 122.359 114.577C133.741 93.4505 132.642 78.084 132.001 53.0771C131.839 46.7743 130.862 38.6689 129.906 32.0625C129.431 28.7762 128.966 25.891 128.62 23.8281C128.571 23.5349 128.044 20.2586 128 20H131Z" fill="#333333"/>
</svg>
