<svg width="200" height="200" viewBox="0 0 200 200" fill="none" xmlns="http://www.w3.org/2000/svg">
<path d="M149.5 88C173 88 180 104 180 120C180 136 173 148 159 148C135 148 125 162 123 169L120 185V190C120 195.523 115.523 200 110 200H30C24.4772 200 20 195.523 20 190V100H23V190C23 193.866 26.134 197 30 197H110C113.866 197 117 193.866 117 190V100H120V109C122 102 130.7 88 149.5 88ZM149.5 96C130.7 96 122 112 120 120V169.5C120 155 145 143 159 143C170.2 143 173 127.667 173 120C173 112 168.3 96 149.5 96Z" fill="white"/>
</svg>
