<svg width="200" height="200" viewBox="0 0 200 200" fill="none" xmlns="http://www.w3.org/2000/svg">
<path d="M147.924 111.581C150.397 110.752 154.072 109.756 157.36 110.054C160.587 110.346 163.52 111.046 166.219 112.477C168.932 113.915 171.169 115.965 173.185 118.616C175.038 121.055 176.284 123.474 176.965 126.157C177.636 128.803 177.698 131.479 177.489 134.33C177.009 140.881 173.913 144.566 171.405 148.636C165.941 157.505 160.471 161.163 152.872 166.758C148.731 169.807 143.265 172.452 139.013 174.288C136.852 175.221 134.937 175.975 133.56 176.496C132.87 176.757 132.312 176.96 131.924 177.1C131.73 177.169 131.578 177.223 131.473 177.26C131.42 177.278 131.379 177.293 131.35 177.303C131.335 177.308 131.324 177.312 131.315 177.315C131.311 177.316 131.307 177.318 131.305 177.319L131.302 177.319L131.301 177.32L127.517 178.62L127.507 178.593C129.289 175.386 131.143 171.882 132.998 168.127C133.865 167.779 134.825 167.383 135.841 166.944C139.956 165.167 144.74 162.811 148.128 160.317C155.873 154.614 160.064 151.794 164.595 144.44C167.682 139.428 169.211 137.831 169.511 133.744C169.686 131.352 169.59 129.621 169.21 128.124C168.84 126.665 168.144 125.205 166.815 123.458C165.342 121.52 163.949 120.329 162.471 119.545C160.977 118.753 159.155 118.248 156.64 118.021C155.117 117.883 152.792 118.387 150.468 119.166C149.385 119.529 148.432 119.908 147.75 120.194C147.411 120.337 147.143 120.455 146.966 120.535C146.877 120.575 146.811 120.606 146.77 120.625C146.749 120.635 146.735 120.641 146.728 120.645L146.724 120.646L146.725 120.647L144.596 121.663C144.974 118.235 145.257 115.116 145.466 112.485C146.165 112.206 147.003 111.89 147.924 111.581Z" fill="white"/>
<path d="M146 104C146 104 144.5 144 134.5 165C124.502 185.996 114.004 199.994 114 200H52C51.9956 199.994 41.4979 185.996 31.5 165C21.5 144 20 104 20 104H23C23.0563 104.939 23.2888 109.07 23.3828 110.36C23.6767 114.398 24.1718 119.997 24.9756 126.242C26.5965 138.836 29.4295 153.673 34.209 163.71C42.3586 180.824 50.842 193.226 53.5303 197H112.47C115.158 193.226 123.641 180.824 131.791 163.71C136.571 153.673 139.403 138.836 141.024 126.242C141.828 119.997 142.323 114.398 142.617 110.36C142.711 109.07 142.944 104.939 143 104H146Z" fill="white"/>
</svg>
